<!--?xml version="1.0" encoding="utf-8"?-->
<!-- Generator: Adobe Illustrator 18.1.1, SVG Export Plug-In . SVG Version: 6.00 Build 0)  -->

<svg version="1.1" id="_x32_" xmlns="http://www.w3.org/2000/svg" xmlns:xlink="http://www.w3.org/1999/xlink" x="0px" y="0px" viewBox="0 0 512 512" style="width: 48px; height: 48px; opacity: 1;" xml:space="preserve">
<style type="text/css">
	.st0{fill:#4B4B4B;}
</style>
<g>
	<path class="st0" d="M255.988,0C114.836,0,0.004,114.832,0.004,256c0,141.152,114.832,256,255.984,256
		c141.168,0,256.008-114.848,256.008-256C511.996,114.832,397.156,0,255.988,0z M196.028,371.082h-55.097v-55.097L277.003,179.93
		l55.096,55.08L196.028,371.082z M363.242,203.867l-16.135,16.128l-55.097-55.096l16.136-16.144
		c10.442-10.434,27.407-10.45,37.848,0l17.248,17.248C373.683,176.444,373.683,193.409,363.242,203.867z" style="fill: #fff;"></path>
</g>
</svg>
