<svg width="243" height="72" viewBox="0 0 243 72" fill="none" xmlns="http://www.w3.org/2000/svg">
<path d="M63.312 54V21.8H77.984C80.9707 21.8 83.528 22.2853 85.656 23.256C87.8213 24.1893 89.5013 25.5333 90.696 27.288C91.8907 29.0427 92.488 31.1707 92.488 33.672C92.488 36.0987 91.8907 38.1893 90.696 39.944C89.5013 41.6987 87.8213 43.0427 85.656 43.976C83.528 44.9093 80.9707 45.376 77.984 45.376H68.184L72.16 41.624V54H63.312ZM83.584 54L75.464 42.296H84.872L93.104 54H83.584ZM72.16 42.632L68.912 38.656H77.368C79.4213 38.656 80.9707 38.2267 82.016 37.368C83.0613 36.472 83.584 35.24 83.584 33.672C83.584 32.0667 83.0613 30.8347 82.016 29.976C80.9707 29.1173 79.4213 28.688 77.368 28.688H68.912L72.16 24.712V42.632ZM107.751 34.456H123.319V40.896H107.751V34.456ZM108.647 47.224H125.839V54H99.9111V21.8H125.223V28.576H108.647V47.224ZM128.03 54L142.478 21.8H151.214L165.718 54H156.982L145.39 26.056H148.358L136.598 54H128.03ZM135.926 47.616L138.222 41.232H154.126L156.422 47.616H135.926ZM170.101 54V21.8H177.381L195.525 43.584H192.221V21.8H200.901V54H193.621L175.421 32.216H178.781V54H170.101ZM205.275 54L219.723 21.8H228.459L242.963 54H234.227L222.635 26.056H225.603L213.843 54H205.275ZM213.171 47.616L215.467 41.232H231.371L233.667 47.616H213.171Z" fill="white"/>
<circle cx="38" cy="21" r="15" fill="#938A90"/>
<circle cx="44" cy="51" r="15" fill="#DF8B74"/>
<circle cx="15" cy="41" r="15" fill="#EBEBEB"/>
</svg>
