<!--?xml version="1.0" encoding="utf-8"?-->
<!-- Generator: Adobe Illustrator 18.0.0, SVG Export Plug-In . SVG Version: 6.00 Build 0)  -->

<svg version="1.1" id="_x32_" xmlns="http://www.w3.org/2000/svg" xmlns:xlink="http://www.w3.org/1999/xlink" x="0px" y="0px" viewBox="0 0 512 512" style="width: 48px; height: 48px; opacity: 1;" xml:space="preserve">
<style type="text/css">
	.st0{fill:#4B4B4B;}
</style>
<g>
	<path class="st0" d="M454.485,0H165.87c-13.647,0-32.707,7.895-42.357,17.544L50.247,90.81c-9.65,9.65-17.544,28.71-17.544,42.357
		v354.021c0,13.647,11.165,24.812,24.812,24.812h288.616c13.647,0,35.978,0,49.625,0h58.73c13.647,0,24.812-11.165,24.812-24.812
		v-58.731c0-13.647,0-35.978,0-49.624V24.812C479.297,11.165,468.132,0,454.485,0z M317.277,399.201c0,2.098-1.7,3.798-3.798,3.798
		h-180.19c-2.097,0-3.798-1.701-3.798-3.798v-16.709c0-2.098,1.701-3.798,3.798-3.798h180.19c2.098,0,3.798,1.7,3.798,3.798V399.201
		z M382.509,322.834c0,2.435-1.974,4.41-4.409,4.41H133.9c-2.435,0-4.409-1.974-4.409-4.41v-15.486c0-2.435,1.974-4.408,4.409-4.408
		h244.201c2.435,0,4.409,1.974,4.409,4.408V322.834z M382.509,247.08c0,2.435-1.974,4.408-4.409,4.408H133.9
		c-2.435,0-4.409-1.974-4.409-4.408v-15.486c0-2.435,1.974-4.409,4.409-4.409h244.201c2.435,0,4.409,1.974,4.409,4.409V247.08z
		 M382.509,171.326c0,2.435-1.974,4.408-4.409,4.408H133.9c-2.435,0-4.409-1.974-4.409-4.408v-15.487
		c0-2.435,1.974-4.409,4.409-4.409h244.201c2.435,0,4.409,1.974,4.409,4.409V171.326z" style="fill: #C2C2C2;"></path>
</g>
</svg>
